<?xml version="1.0" encoding="utf-8"?>
<svg viewBox="46.275 2.822 380.644 275.677" xmlns="http://www.w3.org/2000/svg">
    <path style="fill: none; stroke-width: 2px; stroke: rgb(202, 214, 197);" d="M 66.141 163.552 C 66.141 163.552 67.489 134.33 90.141 117.708 C 112.792 101.087 146.77 71.595 179.13 65.698 C 211.489 59.799 260.029 65.162 265.423 49.344 C 270.816 33.526 266.771 27.092 291.849 19.854 C 316.927 12.616 370.051 13.955 386.772 22.534 C 403.491 31.113 418.861 61.677 410.503 81.247 C 402.143 100.818 378.951 156.849 348.209 174.276 C 317.467 191.702 205.018 184.731 186.142 235.938 C 167.264 287.146 82.59 248.538 74.769 223.873 C 66.949 199.207 60.207 182.051 66.141 163.552 Z" transform="matrix(0.9999999999999999, 0, 0, 0.9999999999999999, 0, -1.7763568394002505e-15)"/>
</svg>